<svg id="visual" viewBox="0 0 900 450" width="900" height="450" xmlns="http://www.w3.org/2000/svg" xmlns:xlink="http://www.w3.org/1999/xlink" version="1.1"><rect x="0" y="0" width="900" height="450" fill="#344e41"></rect><defs><linearGradient id="grad1_0" x1="50%" y1="100%" x2="100%" y2="0%"><stop offset="10%" stop-color="#344e41" stop-opacity="1"></stop><stop offset="90%" stop-color="#344e41" stop-opacity="1"></stop></linearGradient></defs><defs><linearGradient id="grad2_0" x1="0%" y1="100%" x2="50%" y2="0%"><stop offset="10%" stop-color="#344e41" stop-opacity="1"></stop><stop offset="90%" stop-color="#344e41" stop-opacity="1"></stop></linearGradient></defs><g transform="translate(900, 450)"><path d="M-225 0C-198.7 -23.4 -172.3 -46.7 -154.3 -63.9C-136.2 -81.1 -126.5 -92.2 -118.8 -118.8C-111.1 -145.4 -105.6 -187.6 -86.1 -207.9C-66.7 -228.2 -33.3 -226.6 0 -225L0 0Z" fill="#dad4c1"></path></g><g transform="translate(0, 0)"><path d="M225 0C209 27.9 192.9 55.7 172.8 71.6C152.6 87.4 128.3 91.3 116 116C103.7 140.7 103.4 186.2 86.1 207.9C68.8 229.5 34.4 227.3 0 225L0 0Z" fill="#dad4c1"></path></g></svg>